<?xml version="1.0" encoding="UTF-8"?>
<svg id="Layer_1" data-name="Layer 1" xmlns="http://www.w3.org/2000/svg" viewBox="0 0 106.02 114.58">
  <defs>
    <style>
      .cls-1, .cls-2 {
        fill: #e2e8f0;
      }

      .cls-3 {
        fill: none;
        stroke: #0f1117;
        stroke-linecap: round;
        stroke-miterlimit: 10;
        stroke-width: .83px;
      }

      .cls-4 {
        letter-spacing: -.02em;
      }

      .cls-2 {
        font-family: Avenir-Roman, Avenir;
        font-size: 19.67px;
      }
    </style>
  </defs>
  <text class="cls-2" transform="translate(4.19 103.94)"><tspan x="0" y="0">noised</tspan><tspan class="cls-4" x="58.67" y="0">r</tspan><tspan x="65.24" y="0">ops</tspan></text>
  <g>
    <path class="cls-1" d="M72.37,52.86c-1.85-5.7-4.82-10.99-7.46-16.4-4.95-10.14-11.12-32.87-11.4-31.7-.55,2.28,3.02,14.94-6.12,31.44-2.29,4.13-5.89,7.41-8.81,11.13-2.92,3.73-5.53,7.81-6.54,12.37-1.11,5.01-.14,10.41,2.63,14.78s7.34,7.67,12.49,9.02c5.15,1.35,10.83.76,15.55-1.64,4.72-2.39,8.43-6.56,10.16-11.4,2.02-5.65,1.34-11.9-.51-17.6Z"/>
    <g>
      <path class="cls-1" d="M33.19,62.86c4.3-1.32,8.97-3.51,13.37-1.74,3.5,1.25,6.25,5.1,10.25,8.57,6.24,5.91,12.25-.25,15.62-3.33"/>
      <path class="cls-3" d="M33.19,62.86c4.3-1.32,8.97-3.51,13.37-1.74,3.5,1.25,6.25,5.1,10.25,8.57,6.24,5.91,12.25-.25,15.62-3.33"/>
    </g>
  </g>
</svg>