<svg id="Layer_1" data-name="Layer 1" xmlns="http://www.w3.org/2000/svg" viewBox="0 0 201.64 45.03"><defs><style>.cls-1,.cls-2{isolation:isolate;}.cls-1{font-size:41px;font-family:MyanmarSangamMN, Myanmar Sangam MN;}</style></defs><title>noisedrops-dark</title><g id="Layer_2" data-name="Layer 2"><g id="Layer_1-2" data-name="Layer 1-2"><text class="cls-1" transform="translate(0 35.09)">Noise</text><g class="cls-2"><text class="cls-1" transform="translate(100.5 34.85)"><tspan xml:space="preserve">dr  ps</tspan></text></g><path d="M156.11,21.47a56.26,56.26,0,0,0-3.24-7.12,67.22,67.22,0,0,1-5-13.77,18.11,18.11,0,0,1-2.66,13.66c-1.14,1.7-2.56,3.22-3.83,4.84a13.82,13.82,0,0,0-2.84,5.37,8.6,8.6,0,0,0,1.14,6.42,9.28,9.28,0,0,0,5.43,3.92,9.69,9.69,0,0,0,6.76-.71,9.06,9.06,0,0,0,4.41-5A11.93,11.93,0,0,0,156.11,21.47Zm-.51,5.68a5.67,5.67,0,0,1-.79,2,4.79,4.79,0,0,1-1.59,1.54,4.22,4.22,0,0,1-2.16.59,3.62,3.62,0,0,1-2.12-.69,3.66,3.66,0,0,1-1.26-1.83,5.22,5.22,0,0,1-.17-2.2,19.9,19.9,0,0,1,1.33-4.25,23.21,23.21,0,0,0,.25-14.88h0q2.06,6.06,4.69,11.93a30,30,0,0,1,1.51,3.77,8.64,8.64,0,0,1,.3,4Z"/></g></g></svg>